<svg id="svg" fill="#000000" stroke="#000000" width="200px" height="200px" version="1.1" viewBox="144 144 512 512" xmlns="http://www.w3.org/2000/svg">
    <g id="IconSvg_bgCarrier" stroke-width="0"></g>
    <g id="IconSvg_tracerCarrier" stroke-linecap="round" stroke-linejoin="round" stroke="#CCCCCC"></g>
     <g id="IconSvg_iconCarrier">
      <g xmlns="http://www.w3.org/2000/svg">
  <path d="m604.67 557.44h-409.35c-5.625 0-10.82-3-13.633-7.8711s-2.8125-10.871 0-15.742c2.8125-4.8711 8.0078-7.875 13.633-7.875h409.35c5.625 0 10.82 3.0039 13.633 7.875 2.8125 4.8711 2.8125 10.871 0 15.742s-8.0078 7.8711-13.633 7.8711z"></path>
  <path d="m400 494.46c-3.3359 0.015624-6.5898-1.0352-9.2891-2.9883l-62.977-45.973c-4.5586-3.3203-6.9961-8.8164-6.4023-14.422 0.59766-5.6055 4.1367-10.465 9.2891-12.754 5.1523-2.2852 11.133-1.6484 15.691 1.668l37.941 27.238v-188.93c0-5.625 3-10.82 7.8711-13.633s10.875-2.8125 15.746 0 7.8711 8.0078 7.8711 13.633v220.42c-0.007813 2.9062-0.82031 5.7539-2.3516 8.2305-1.5273 2.4727-3.7109 4.4727-6.3086 5.7812-2.1914 1.125-4.6172 1.7188-7.082 1.7305z"></path>
  <path d="m400 494.46c-4.957 0-9.625-2.332-12.598-6.2969-2.5039-3.3398-3.582-7.5391-2.9883-11.672 0.58984-4.1328 2.7969-7.8633 6.1367-10.367l62.977-46.445c4.5-3.375 10.461-4.0938 15.633-1.8828 5.1719 2.207 8.7734 7.0078 9.4453 12.594s-1.6836 11.105-6.1836 14.477l-62.977 46.445c-2.7266 2.0469-6.0391 3.1484-9.4453 3.1484z"></path>
 </g>

      </g>
      </svg>