<svg id="svg" fill="#000000" stroke="#000000" width="200px" height="200px" version="1.1" viewBox="144 144 512 512" xmlns="http://www.w3.org/2000/svg">
    <g id="IconSvg_bgCarrier" stroke-width="0"></g>
    <g id="IconSvg_tracerCarrier" stroke-linecap="round" stroke-linejoin="round" stroke="#CCCCCC"></g>
     <g id="IconSvg_iconCarrier">
      <path xmlns="http://www.w3.org/2000/svg" d="m149.1 554.16v-22.168h30.23v-226.71c0-17.633 14.609-32.242 32.242-32.242h117.89v44.336h-106.3v215.12h112.85v2.0156c0 6.5508 5.543 12.09 12.09 12.09h61.969c6.5508 0 12.09-5.543 12.09-12.09v-2.0156h112.85l0.007812-90.684h44.336v90.184l2.0156-0.003906h28.719v22.168c0 19.648-16.121 35.77-35.77 35.77h-389.95c-19.648 0-35.266-16.121-35.266-35.77zm501.79-313.88v139.05c0 16.625-13.602 29.727-29.727 29.727h-163.73l-50.887 51.391c-2.5195 2.5195-7.5586 1.0078-7.5586-3.0234v-48.367h-6.5508c-16.625 0-29.727-13.602-29.727-29.727l0.003906-139.05c0-16.625 13.602-29.727 29.727-29.727h229.23c16.121-0.5 29.219 13.102 29.219 29.727zm-58.441 104.29c0-2.0156-1.5117-4.0312-4.0312-4.0312l-91.691 0.003906c-2.0156 0-4.0312 1.5117-4.0312 4.0312v15.113c0 2.0156 1.5117 4.0312 4.0312 4.0312h91.691c2.0156 0 4.0312-1.5117 4.0312-4.0312zm0-42.32c0-2.0156-1.5117-4.0312-4.0312-4.0312l-163.74 0.003907c-2.0156 0-4.0312 1.5117-4.0312 4.0312v15.113c0 2.0156 1.5117 4.0312 4.0312 4.0312h164.24c2.0156 0 4.0312-1.5117 4.0312-4.0312v-15.117zm0-42.82c0-2.0156-1.5117-4.0312-4.0312-4.0312h-163.74c-2.0156 0-4.0312 1.5117-4.0312 4.0312v15.113c0 2.0156 1.5117 4.0312 4.0312 4.0312h164.24c2.0156 0 4.0312-1.5117 4.0312-4.0312v-15.113z"></path>

      </g>
      </svg>