<svg id="svg" fill="#000000" stroke="#000000" width="200px" height="200px" version="1.1" viewBox="144 144 512 512" xmlns="http://www.w3.org/2000/svg">
    <g id="IconSvg_bgCarrier" stroke-width="0"></g>
    <g id="IconSvg_tracerCarrier" stroke-linecap="round" stroke-linejoin="round" stroke="#CCCCCC"></g>
     <g id="IconSvg_iconCarrier">
      <g xmlns="http://www.w3.org/2000/svg">
  <path d="m400 250.68c-21.789 0-42.684 8.6523-58.09 24.059s-24.062 36.301-24.062 58.09c0 21.785 8.6562 42.684 24.062 58.086 15.406 15.406 36.301 24.062 58.09 24.062 21.785 0 42.68-8.6562 58.086-24.062 15.406-15.402 24.062-36.301 24.062-58.086 0-21.789-8.6562-42.684-24.062-58.09s-36.301-24.059-58.086-24.059zm0 134.35c-13.848 0-27.125-5.5-36.914-15.289-9.7891-9.7891-15.289-23.066-15.289-36.91s5.5-27.121 15.289-36.91c9.7891-9.7891 23.066-15.289 36.914-15.289 13.844 0 27.121 5.5 36.91 15.289 9.7891 9.7891 15.289 23.066 15.289 36.91-0.039063 13.832-5.5508 27.09-15.332 36.871s-23.035 15.293-36.867 15.328z"></path>
  <path d="m400 176.08c-59.387 0-116.34 23.594-158.33 65.586-41.992 41.992-65.586 98.945-65.586 158.33 0 59.383 23.594 116.34 65.586 158.33 41.992 41.992 98.945 65.582 158.33 65.582 59.383 0 116.34-23.59 158.33-65.582 41.992-41.992 65.582-98.949 65.582-158.33 0-39.309-10.348-77.918-30-111.96-19.652-34.039-47.918-62.305-81.957-81.957-34.039-19.652-72.652-30-111.96-30zm-89.566 395.91v-22.672c0-19.781 7.8594-38.754 21.848-52.742s32.961-21.848 52.742-21.848h29.809c19.785 0 38.758 7.8594 52.746 21.848s21.848 32.961 21.848 52.742v22.672c-27.629 14.504-58.363 22.082-89.566 22.082s-61.938-7.5781-89.566-22.082zm208.94-19.312v-3.3594c0.035156-27.734-10.965-54.348-30.578-73.961s-46.227-30.613-73.965-30.578h-29.809c-27.727 0-54.316 11.016-73.922 30.621-19.605 19.605-30.617 46.195-30.617 73.918v3.3594c-31.859-24.871-55.164-59.07-66.652-97.82-11.492-38.75-10.598-80.121 2.5547-118.34 13.148-38.219 37.906-71.379 70.809-94.852 32.902-23.477 72.312-36.094 112.73-36.094 40.418 0 79.828 12.617 112.73 36.094 32.906 23.473 57.66 56.633 70.812 94.852 13.152 38.223 14.043 79.594 2.5547 118.34-11.492 38.75-34.793 72.949-66.652 97.82z"></path>
 </g>

      </g>
      </svg>